<?xml version="1.0" encoding="utf-8"?>
<!-- Generator: Adobe Illustrator 18.1.1, SVG Export Plug-In . SVG Version: 6.00 Build 0)  -->
<svg version="1.1" id="Layer_1" xmlns="http://www.w3.org/2000/svg" xmlns:xlink="http://www.w3.org/1999/xlink" x="0px" y="0px"
	 viewBox="-422 483 155 35" enable-background="new -422 483 155 35" xml:space="preserve">
<path display="none" fill="#1B7EBA" d="M-422,489h130v115l-65.3-10l-64.7,10V489z"/>
<path display="none" fill="#2697DE" d="M-523.8,389.8h333.7v305.4l-167.7-25.7l-166,25.7V389.8z"/>
<g>
	<path fill="#2D2D2D" d="M-379,485.9h5.5v28.3h-5.5V485.9z"/>
	<path fill="#2D2D2D" d="M-358,514.3v-11.5c0-1.6-0.2-2.8-0.7-3.6c-0.5-0.7-1.3-1.1-2.4-1.1c-1,0-1.8,0.3-2.5,0.9
		c-0.7,0.6-1.2,1.3-1.5,2.2v13.1h-5.3V494h4.2l0.6,2.7h0.2c0.6-0.9,1.4-1.6,2.5-2.3c1-0.6,2.3-1,4-1c1,0,1.9,0.1,2.7,0.4
		c0.8,0.3,1.4,0.7,2,1.3c0.5,0.6,0.9,1.5,1.2,2.5c0.3,1.1,0.4,2.4,0.4,3.9v12.6H-358z"/>
	<path fill="#2D2D2D" d="M-327.5,499.6l0.6-5.6h-0.2l-1.7,4.5l-6,10.6h-1.8l-6.4-10.6l-1.8-4.5h-0.2l0.8,5.6v14.7h-5.3v-28.3h5.1
		l7.6,13l1.3,3.2h0.2l1.2-3.3l7.2-12.9h5v28.3h-5.5V499.6z"/>
	<path fill="#2D2D2D" d="M-302.3,512.5c-0.8,0.6-1.9,1.2-3.3,1.6c-1.4,0.4-2.9,0.7-4.4,0.7c-3.3,0-5.7-1-7.2-2.9
		c-1.5-1.9-2.3-4.5-2.3-7.8c0-3.6,0.8-6.2,2.5-8c1.7-1.8,4.1-2.7,7.2-2.7c1,0,2,0.1,3,0.4c1,0.3,1.8,0.7,2.6,1.3
		c0.8,0.6,1.4,1.5,1.8,2.5c0.5,1.1,0.7,2.4,0.7,3.9c0,0.6,0,1.2-0.1,1.8c-0.1,0.6-0.2,1.3-0.3,2h-12.1c0.1,1.7,0.5,3,1.3,3.8
		c0.8,0.9,2.1,1.3,3.9,1.3c1.1,0,2.1-0.2,3-0.5c0.9-0.3,1.5-0.7,2-1L-302.3,512.5z M-309.8,497.7c-1.4,0-2.4,0.4-3.1,1.2
		c-0.7,0.8-1.1,1.9-1.2,3.3h7.5c0.1-1.5-0.1-2.6-0.7-3.4C-307.7,498.1-308.6,497.7-309.8,497.7z"/>
	<path fill="#2D2D2D" d="M-283.2,512.5c-0.8,0.6-1.9,1.2-3.3,1.6c-1.4,0.4-2.9,0.7-4.4,0.7c-3.3,0-5.7-1-7.2-2.9
		c-1.5-1.9-2.3-4.5-2.3-7.8c0-3.6,0.8-6.2,2.5-8c1.7-1.8,4.1-2.7,7.2-2.7c1,0,2,0.1,3,0.4c1,0.3,1.8,0.7,2.6,1.3
		c0.8,0.6,1.4,1.5,1.8,2.5c0.5,1.1,0.7,2.4,0.7,3.9c0,0.6,0,1.2-0.1,1.8c-0.1,0.6-0.2,1.3-0.3,2h-12.1c0.1,1.7,0.5,3,1.3,3.8
		c0.8,0.9,2.1,1.3,3.9,1.3c1.1,0,2.1-0.2,3-0.5c0.9-0.3,1.5-0.7,2-1L-283.2,512.5z M-290.7,497.7c-1.4,0-2.4,0.4-3.1,1.2
		c-0.7,0.8-1.1,1.9-1.2,3.3h7.5c0.1-1.5-0.1-2.6-0.7-3.4C-288.7,498.1-289.5,497.7-290.7,497.7z"/>
	<path fill="#2D2D2D" d="M-282.2,494h2.8v-8.3h5.3v8.3h4.9v4.5h-4.9v7.8c0,1.4,0.1,2.4,0.4,3c0.3,0.6,0.8,0.9,1.6,0.9
		c0.5,0,1-0.1,1.4-0.2c0.4-0.1,0.8-0.3,1.3-0.5l0.9,4c-0.7,0.4-1.6,0.6-2.5,0.9c-1,0.2-2,0.4-3,0.4c-1.9,0-3.2-0.5-4.1-1.4
		c-0.9-1-1.3-2.5-1.3-4.7v-10.2h-2.8V494z"/>
</g>
<path fill="#2D2D2D" d="M-414.9,496c1.6-3,4.9-5.4,8.7-5.4c3.8,0,7.1,2.4,8.7,5.4h5.3c-1.8-6-7.4-10.3-13.9-10.3
	s-12.1,4.3-13.9,10.3H-414.9z"/>
<rect x="-396.4" y="486.7" fill="#2D2D2D" width="5" height="9.3"/>
<path fill="#2D2D2D" d="M-396.6,504c-1.6,3-4.9,5.4-8.7,5.4c-3.8,0-7.1-2.4-8.7-5.4h-5.3c1.8,6,7.4,10.3,13.9,10.3
	s12.1-4.3,13.9-10.3H-396.6z"/>
<rect x="-420.1" y="504" fill="#2D2D2D" width="5" height="9.3"/>
<circle fill="#2D2D2D" cx="-405.9" cy="500.1" r="4.1"/>
</svg>
