<?xml version="1.0" encoding="utf-8"?>
<!-- Generator: Adobe Illustrator 18.1.1, SVG Export Plug-In . SVG Version: 6.00 Build 0)  -->
<svg version="1.1" id="Layer_1" xmlns="http://www.w3.org/2000/svg" xmlns:xlink="http://www.w3.org/1999/xlink" x="0px" y="0px"
	 viewBox="-420 483 158.8 35" enable-background="new -420 483 158.8 35" xml:space="preserve">
<path display="none" fill="#1B7EBA" d="M-420,489h130v115l-65.3-10l-64.7,10V489z"/>
<path display="none" fill="#2697DE" d="M-521.8,389.8h333.7v305.4l-167.7-25.7l-166,25.7V389.8z"/>
<g>
	<rect x="-375" y="485.9" fill="#FFFFFF" width="5.5" height="28.3"/>
	<path fill="#FFFFFF" d="M-350.3,495.2c-0.5-0.6-1.2-1.1-2-1.3c-0.8-0.3-1.7-0.4-2.7-0.4c-1.6,0-2.9,0.3-4,1c-1,0.6-1.8,1.4-2.5,2.3
		h-0.2l-0.6-2.7h-4.2v20.2h5.3v-13.1c0.3-0.9,0.8-1.6,1.5-2.2c0.7-0.6,1.5-0.9,2.5-0.9c1.1,0,1.9,0.4,2.4,1.1
		c0.5,0.7,0.7,1.9,0.7,3.6v11.5h5.3v-12.6c0-1.6-0.1-2.9-0.4-3.9C-349.4,496.7-349.8,495.8-350.3,495.2z"/>
	<polygon fill="#FFFFFF" points="-330.1,498.8 -331.3,502.1 -331.5,502.1 -332.8,498.9 -340.4,485.9 -345.4,485.9 -345.4,514.3 
		-340.2,514.3 -340.2,499.5 -341,494 -340.8,494 -339,498.4 -332.7,509 -330.9,509 -324.9,498.5 -323.1,494 -322.9,494 
		-323.5,499.6 -323.5,514.3 -317.9,514.3 -317.9,485.9 -322.9,485.9 	"/>
	<path fill="#FFFFFF" d="M-300.1,495.2c-0.8-0.6-1.6-1.1-2.6-1.3c-1-0.3-2-0.4-3-0.4c-3.1,0-5.5,0.9-7.2,2.7c-1.7,1.8-2.5,4.5-2.5,8
		c0,3.3,0.8,5.9,2.3,7.8c1.5,1.9,3.9,2.9,7.2,2.9c1.6,0,3-0.2,4.4-0.7c1.4-0.4,2.5-1,3.3-1.6l-1.7-3.4c-0.5,0.4-1.1,0.7-2,1
		c-0.9,0.3-1.9,0.5-3,0.5c-1.8,0-3.1-0.4-3.9-1.3c-0.8-0.9-1.2-2.1-1.3-3.8h12.1c0.1-0.7,0.2-1.4,0.3-2c0.1-0.6,0.1-1.3,0.1-1.8
		c0-1.6-0.2-2.9-0.7-3.9C-298.8,496.7-299.4,495.8-300.1,495.2z M-302.5,502.2h-7.5c0.1-1.4,0.5-2.5,1.2-3.3
		c0.7-0.8,1.7-1.2,3.1-1.2c1.2,0,2.1,0.4,2.6,1.2C-302.6,499.6-302.4,500.7-302.5,502.2z"/>
	<path fill="#FFFFFF" d="M-281,495.2c-0.8-0.6-1.6-1.1-2.6-1.3c-1-0.3-2-0.4-3-0.4c-3.1,0-5.5,0.9-7.2,2.7c-1.7,1.8-2.5,4.5-2.5,8
		c0,3.3,0.8,5.9,2.3,7.8c1.5,1.9,3.9,2.9,7.2,2.9c1.6,0,3-0.2,4.4-0.7c1.4-0.4,2.5-1,3.3-1.6l-1.7-3.4c-0.5,0.4-1.1,0.7-2,1
		c-0.9,0.3-1.9,0.5-3,0.5c-1.8,0-3.1-0.4-3.9-1.3c-0.8-0.9-1.2-2.1-1.3-3.8h12.1c0.1-0.7,0.2-1.4,0.3-2c0.1-0.6,0.1-1.3,0.1-1.8
		c0-1.6-0.2-2.9-0.7-3.9C-279.7,496.7-280.3,495.8-281,495.2z M-283.4,502.2h-7.5c0.1-1.4,0.5-2.5,1.2-3.3c0.7-0.8,1.7-1.2,3.1-1.2
		c1.2,0,2.1,0.4,2.6,1.2C-283.5,499.6-283.3,500.7-283.4,502.2z"/>
	<path fill="#FFFFFF" d="M-265.4,509.5c-0.5,0.2-0.9,0.4-1.3,0.5c-0.4,0.1-0.9,0.2-1.4,0.2c-0.8,0-1.3-0.3-1.6-0.9
		c-0.3-0.6-0.4-1.6-0.4-3v-7.8h4.9V494h-4.9v-8.3h-5.3v8.3h-2.8v4.5h2.8v10.2c0,2.2,0.4,3.8,1.3,4.7c0.9,1,2.2,1.4,4.1,1.4
		c1,0,2-0.1,3-0.4c1-0.2,1.8-0.5,2.5-0.9L-265.4,509.5z"/>
	<path fill="#FFFFFF" d="M-392.4,489.5c-2.6-2.4-6-3.8-9.8-3.8c-6.6,0-12.1,4.3-13.9,10.3h5.3c1.6-3,4.9-5.4,8.7-5.4
		c3.8,0,7.1,2.4,8.7,5.4h5.3c0,0,0,0,0,0h0.9v-9.3h-5V489.5z"/>
	<path fill="#FFFFFF" d="M-401.3,509.4c-3.8,0-7.1-2.4-8.7-5.4h-5.3c0,0,0,0,0,0h-0.9v9.3h5v-2.7c2.6,2.3,6,3.8,9.8,3.8
		c6.6,0,12.1-4.3,13.9-10.3h-5.3C-394.2,507-397.5,509.4-401.3,509.4z"/>
	<circle fill="#FFFFFF" cx="-401.9" cy="500.1" r="4.1"/>
</g>
</svg>
